<svg xmlns="http://www.w3.org/2000/svg" xmlns:xlink="http://www.w3.org/1999/xlink" width="130" height="130" viewBox="0 0 130 130">
  <defs>
    <clipPath id="clip-path">
      <rect id="Ret칙ngulo_9" data-name="Ret칙ngulo 9" width="130" height="130" transform="translate(125 2031)" fill="#fff" stroke="#707070" stroke-width="1"/>
    </clipPath>
    <linearGradient id="linear-gradient" x1="0.5" y1="-0.05" x2="0.5" y2="2.593" gradientUnits="objectBoundingBox">
      <stop offset="0" stop-color="#6dc7ff"/>
      <stop offset="1" stop-color="#32e0c4"/>
    </linearGradient>
    <linearGradient id="linear-gradient-2" x1="0.5" y1="-0.005" x2="0.5" y2="0.997" gradientUnits="objectBoundingBox">
      <stop offset="0" stop-color="#1a6dff"/>
      <stop offset="1" stop-color="#32e0c4"/>
    </linearGradient>
    <linearGradient id="linear-gradient-3" x1="0.5" y1="-14.125" x2="0.5" y2="11.934" gradientUnits="objectBoundingBox">
      <stop offset="0" stop-color="#1a6dff"/>
      <stop offset="0.392" stop-color="#208bf0"/>
      <stop offset="1" stop-color="#32e0c4"/>
    </linearGradient>
    <linearGradient id="linear-gradient-7" y1="-16.125" y2="9.934" xlink:href="#linear-gradient-2"/>
    <linearGradient id="linear-gradient-8" y1="-10.563" y2="2.467" xlink:href="#linear-gradient-2"/>
  </defs>
  <g id="Grupo_de_m치scara_2" data-name="Grupo de m치scara 2" transform="translate(-125 -2031)" clip-path="url(#clip-path)">
    <g id="icons8-arquivo" transform="translate(110 2016)">
      <path id="Caminho_3" data-name="Caminho 3" d="M95,90h15a2.5,2.5,0,0,0,2.5-2.5v-20A2.5,2.5,0,0,0,110,65H95a2.5,2.5,0,0,0-2.5,2.5v20A2.5,2.5,0,0,0,95,90Z" fill="url(#linear-gradient)"/>
      <path id="Caminho_4" data-name="Caminho 4" d="M122.5,25h-5a5.005,5.005,0,0,0-5-5h-20a5.005,5.005,0,0,0-5-5h-15a5.005,5.005,0,0,0-5,5h-20a5.005,5.005,0,0,0-5,5h-5a5.005,5.005,0,0,0-5,5V140a5.005,5.005,0,0,0,5,5h85a5.005,5.005,0,0,0,5-5V30A5.005,5.005,0,0,0,122.5,25Zm-50-5h15V32.5a7.5,7.5,0,0,1-15,0Zm-35,10h30v2.5a12.5,12.5,0,0,0,25,0V30h30v80h-25a5.005,5.005,0,0,0-5,5v25h-55Zm60,110V115h25v25Z" fill="url(#linear-gradient-2)"/>
      <path id="Caminho_5" data-name="Caminho 5" d="M47.5,55h65v5h-65Z" fill="url(#linear-gradient-3)"/>
      <path id="Caminho_6" data-name="Caminho 6" d="M47.5,65h35v5h-35Z" fill="url(#linear-gradient-3)"/>
      <path id="Caminho_7" data-name="Caminho 7" d="M47.5,75h35v5h-35Z" fill="url(#linear-gradient-3)"/>
      <path id="Caminho_8" data-name="Caminho 8" d="M47.5,85h35v5h-35Z" fill="url(#linear-gradient-3)"/>
      <path id="Caminho_9" data-name="Caminho 9" d="M92.5,95h20v5h-20Z" fill="url(#linear-gradient-7)"/>
      <path id="Caminho_10" data-name="Caminho 10" d="M47.5,120h5v10h-5Z" fill="url(#linear-gradient-8)"/>
      <path id="Caminho_11" data-name="Caminho 11" d="M57.5,120h5v10h-5Z" fill="url(#linear-gradient-8)"/>
      <path id="Caminho_12" data-name="Caminho 12" d="M67.5,120h5v10h-5Z" fill="url(#linear-gradient-8)"/>
      <path id="Caminho_13" data-name="Caminho 13" d="M77.5,120h5v10h-5Z" fill="url(#linear-gradient-8)"/>
      <path id="Caminho_14" data-name="Caminho 14" d="M102.5,125v5h5v-5h5v-5h-5A5.005,5.005,0,0,0,102.5,125Z" fill="url(#linear-gradient-8)"/>
      <path id="Caminho_15" data-name="Caminho 15" d="M47.5,95h35v5h-35Z" fill="url(#linear-gradient-7)"/>
    </g>
  </g>
</svg>
