<svg id="IconeWpp" xmlns="http://www.w3.org/2000/svg" width="27.241" height="27.371" viewBox="0 0 27.241 27.371">
  <path id="iconmonstr-whatsapp-1" d="M.057,27.371l1.924-7.029a13.562,13.562,0,1,1,5.267,5.142L.057,27.371ZM7.581,23.03a11.247,11.247,0,1,0-3.128-3.042l-1.139,4.16L7.581,23.03ZM20.567,16.8c-.084-.141-.31-.226-.65-.4s-2-.99-2.316-1.1-.536-.17-.763.17-.876,1.1-1.073,1.329-.4.254-.734.084A9.25,9.25,0,0,1,12.3,15.2a10.2,10.2,0,0,1-1.885-2.348c-.2-.339-.021-.522.148-.691.153-.152.339-.4.509-.594A2.223,2.223,0,0,0,11.418,11a.623.623,0,0,0-.029-.594c-.086-.169-.763-1.837-1.045-2.516-.276-.66-.555-.571-.763-.582L8.932,7.3a1.242,1.242,0,0,0-.9.424,3.8,3.8,0,0,0-1.186,2.827,6.6,6.6,0,0,0,1.383,3.506,15.11,15.11,0,0,0,5.789,5.117,19.609,19.609,0,0,0,1.932.714,4.658,4.658,0,0,0,2.135.135,3.491,3.491,0,0,0,2.288-1.611,2.823,2.823,0,0,0,.2-1.613Z" transform="translate(-0.057)" fill="#ca9d22"/>
</svg>
