<svg xmlns="http://www.w3.org/2000/svg" width="176.248" height="48.413" viewBox="0 0 176.248 48.413">
  <path id="Caminho_197" data-name="Caminho 197" d="M106.381,104l4.254.23-3.152-4.25a30.978,30.978,0,0,1-2.193-3.428l-1.783-4.25h-1.369v4.25c0,1.782.273,2.742.684,2.742h1.646v1.1H96.1V99.3h1.234a.3.3,0,0,0,.273-.274V85.313a2.809,2.809,0,0,0-.273-1.508,1.05,1.05,0,0,0-.686-.274H95.42v-1.1h9.048a8.965,8.965,0,0,1,3.426.686,4.877,4.877,0,0,1,2.879,4.8,3.624,3.624,0,0,1-.686,1.919,4.175,4.175,0,0,1-3.016,1.645c.549.96,3.291,5.347,8.363,13.023l4.111.138-3.016-3.564c-1.781-2.331-2.74-4.113-2.879-5.072a5,5,0,0,1,.961-3.564,4.455,4.455,0,0,1,3.564-1.371c2.057,0,3.426,1.782,4.111,5.483-1.1-2.742-2.879-3.7-5.209-2.742a2.323,2.323,0,0,0-1.371,1.1l-.137.823A2.909,2.909,0,0,0,116.94,98.2a5.487,5.487,0,0,0,3.7,1.233,6.232,6.232,0,0,0,3.7-1.1,4.673,4.673,0,0,0,1.508-3.427,3.3,3.3,0,0,0-.959-2.467,9.833,9.833,0,0,0-2.469-1.371l-3.152-1.1a13.426,13.426,0,0,1-2.879-1.645,6.392,6.392,0,0,1,.685-10.555,10.664,10.664,0,0,1,6.307-1.782,17.443,17.443,0,0,1,5.072.685l.273,3.291c.137.548-.137.823-.549.823s-.684-.274-.822-.823a2.711,2.711,0,0,0-1.508-1.782,6.17,6.17,0,0,0-5.62.274,3.4,3.4,0,0,0-1.51,2.879,2.468,2.468,0,0,0,.961,2.057,7.047,7.047,0,0,0,2.33,1.233l3.152,1.234a12.618,12.618,0,0,1,3.291,1.782,7.776,7.776,0,0,1,1.645,2.467,7.356,7.356,0,0,1,.686,2.879q0,4.729-3.289,6.581c-1.92.959-4.936,1.508-8.912,1.508-.273,0-.137.411.412,1.1a8.155,8.155,0,0,0,2.057,2.468l10.83.548,9.047,1.1q-.205.618-16.451,1.234a16.823,16.823,0,0,0,4.662,1.919,18.047,18.047,0,0,0,7.676,0,28.259,28.259,0,0,0,5.348-2.468,44.326,44.326,0,0,1,5.9-2.879,28.66,28.66,0,0,1,9.459-1.371,13.048,13.048,0,0,1,6.58,1.371,4.755,4.755,0,0,1,2.469,3.017,3.671,3.671,0,0,1-.686,3.152,4.46,4.46,0,0,1-3.564,1.371c2.6-3.7.41-6.032-6.58-6.854a22.021,22.021,0,0,0-6.033.411,15.976,15.976,0,0,0-4.8,1.782l-4.387,2.057a15.215,15.215,0,0,1-4.662,1.508,19.226,19.226,0,0,1-8.773-.822,26.292,26.292,0,0,1-4.387-2.193l-5.209.137,10.691,16.313-8.088-7.813c-.41,0-2.6-2.605-6.58-7.952l-.273-.411-5.209.268v.144c0,.009-.016.125-.018.133l0,.008a3.828,3.828,0,0,1-.422,1.006h0a4.776,4.776,0,0,1-2.221,1.821l-.016.008a6.453,6.453,0,0,1-1.2.389,7.09,7.09,0,0,1-3.4-.1l-.006,0a8.343,8.343,0,0,1-1.283-.469,7.512,7.512,0,0,1-2.547-1.9h0a4.813,4.813,0,0,1-1.054-1.853,3.691,3.691,0,0,1-.022-1.926l0-.008a3.6,3.6,0,0,1,.423-1h0a4.769,4.769,0,0,1,2.219-1.821l.049-.02.018-.006c.178-.058.367-.113.572-.164h0q.292-.074.6-.126a7.815,7.815,0,0,1,3.35.146,6.584,6.584,0,0,1,.85.19,6,6,0,0,1,1.979,1.013l.043.041.43.427Zm.553,4.143V107.8l.006-.077a2.64,2.64,0,0,0-.1-1.194,3.632,3.632,0,0,0-.721-1.235l-.91-.91a4.818,4.818,0,0,0-1.6-.812q-.177-.054-.357-.1h0q-.178-.04-.359-.065l-.014,0-.066-.014a6.771,6.771,0,0,0-3.421-.021h0c-.158.04-.322.088-.488.143a3.685,3.685,0,0,0-1.695,1.376h0a2.859,2.859,0,0,0-.174.339,2.774,2.774,0,0,0-.12.364l0,.008a2.608,2.608,0,0,0,.012,1.364,3.773,3.773,0,0,0,.827,1.434l.006,0a6.394,6.394,0,0,0,2.172,1.613,7.241,7.241,0,0,0,1.113.4l.006,0a6.012,6.012,0,0,0,2.877.087,5.653,5.653,0,0,0,.992-.326l.018-.008a3.69,3.69,0,0,0,1.721-1.389h0a2.312,2.312,0,0,0,.277-.641Zm-1.645-17.759a3.356,3.356,0,0,1-2.469.823h-.684V84.08c0-.137.137-.274.547-.274a3.373,3.373,0,0,1,2.605,1.234,4.193,4.193,0,0,1,.959,2.742,3.4,3.4,0,0,1-.958,2.6Zm44.143-7.951v1.1h-.959l-.412.138-.137.411V96.556c0,1.782.273,2.742.686,2.742h1.508v1.1h-8.225V99.3h1.232a.3.3,0,0,0,.273-.274V91.347h-6.031v5.209c0,1.782.275,2.742.686,2.742H139.7v1.1h-8.361V99.3h1.234a.3.3,0,0,0,.273-.274V85.313a2.809,2.809,0,0,0-.273-1.508.717.717,0,0,0-.549-.274h-1.371v-1.1h8.363v1.1h-1.1l-.412.138-.137.411v6.031H143.4v-4.8a2.809,2.809,0,0,0-.273-1.508.711.711,0,0,0-.549-.274h-1.371v-1.1h8.227Zm3.015,16.176a10,10,0,0,0,6.717,2.331,9.279,9.279,0,0,0,7.814-3.564,9.675,9.675,0,0,0,2.193-6.444,8.476,8.476,0,0,0-2.6-6.58,9.451,9.451,0,0,0-6.719-2.468,9.282,9.282,0,0,0-7.814,3.565,10.187,10.187,0,0,0-2.193,6.443A8.591,8.591,0,0,0,152.447,98.611Zm16.315-16.176v1.1h1.369a.715.715,0,0,1,.549.274,2.792,2.792,0,0,1,.275,1.508V99.023a.3.3,0,0,1-.275.274h-1.232v1.1h8.361V99.3h-1.645c-.412,0-.686-.96-.686-2.742V92.031l2.33.274a7.156,7.156,0,0,0,4.936-1.645,4.609,4.609,0,0,0,1.508-3.29,4.168,4.168,0,0,0-1.371-3.153c-1.1-1.233-2.742-1.782-4.936-1.782h-9.183Zm-10.008.685c2.057,0,3.7,1.234,4.66,3.839a16.365,16.365,0,0,1,1.234,6.443,9.372,9.372,0,0,1-.822,4.25,3.976,3.976,0,0,1-3.564,2.057c-2.057,0-3.7-1.233-4.8-3.7a19.445,19.445,0,0,1-1.1-6.58,9.144,9.144,0,0,1,.822-4.113,3.6,3.6,0,0,1,3.565-2.195Zm20.014,1.92a4.3,4.3,0,0,1,.961,2.879,2.9,2.9,0,0,1-.822,2.193,3.007,3.007,0,0,1-2.332.96l-1.1-.274V84.08c0-.137.273-.274.686-.274a3.183,3.183,0,0,1,2.6,1.234ZM113.24,106.151l.273-.686.686-.274a1.052,1.052,0,0,1,.686.274l.275.686a1.057,1.057,0,0,1-.275.686,1.043,1.043,0,0,1-.686.274l-.686-.274a1.054,1.054,0,0,1-.273-.686ZM10.287,78.048a1.158,1.158,0,0,1,.822.274,3.854,3.854,0,0,1,.411,2.056V98.611c0,.137-.274.274-.686.274l-1.782.137v1.371h8.363l3.838-.137a12.388,12.388,0,0,0,3.7-.823,6.774,6.774,0,0,0,3.29-2.056,6.014,6.014,0,0,0,1.234-3.7q0-5.141-6.581-6.581a9.794,9.794,0,0,0,3.564-1.508,4.551,4.551,0,0,0,1.919-3.7A5.042,5.042,0,0,0,27.283,79c-1.371-1.507-3.564-2.331-6.717-2.331H8.5v1.371h1.783ZM36.2,82.572l-3.427,7.813c-2.057,4.936-3.153,7.814-3.428,8.5,0,.137-.137.273-.274.411H27.7v1.1h5.621V99.3H31.261l-.137-.411a12.026,12.026,0,0,1,.686-2.6l.822-2.057h5.347c1.1,3.153,1.646,4.661,1.646,4.8s-.137.274-.412.274H37.979v1.1h8.226V99.3h-.823a.753.753,0,0,1-.823-.549L43.6,96.691,40.583,88.74A35.3,35.3,0,0,1,38.8,83.53l.411-.548c.137-.137.274-.274.274-.411a.364.364,0,0,0-.412-.412l-2.878.413Zm-17.821-4.25A4.544,4.544,0,0,1,21.8,79.693a4.856,4.856,0,0,1,1.371,3.564,4.577,4.577,0,0,1-.411,2.056,2.663,2.663,0,0,1-1.645,1.371l-3.7-.274V78.733C17.415,78.459,17.689,78.322,18.375,78.322Zm-.96,14.532V87.782c2.331,0,3.976.686,5.072,2.193a6.014,6.014,0,0,1,1.234,3.7,5.37,5.37,0,0,1-1.234,3.564,4.669,4.669,0,0,1-3.427,1.508l-.823-.137a1.066,1.066,0,0,1-.548-.548,32.529,32.529,0,0,1-.274-5.21Zm15.628.136,2.467-5.62,2.057,5.62ZM48.26,85.313V99.022a.3.3,0,0,1-.274.274H46.753v1.1h8.362V99.3H53.47c-.411,0-.686-.96-.686-2.742V92.3h1.371l1.919,4.25a13.478,13.478,0,0,0,2.193,3.428,1.884,1.884,0,0,0,.549.411h5.346V99.3a2.2,2.2,0,0,1-1.508-.686,35.122,35.122,0,0,1-4.8-7.129,3.9,3.9,0,0,0,2.879-1.645,2.964,2.964,0,0,0,.822-1.919,4.8,4.8,0,0,0-3.016-4.8,8.291,8.291,0,0,0-3.29-.686H46.066v1.1h1.371a.713.713,0,0,1,.548.274,2.792,2.792,0,0,1,.275,1.509Zm5.209-1.507a3.115,3.115,0,0,1,2.468,1.234,4.193,4.193,0,0,1,.959,2.742,3.946,3.946,0,0,1-.823,2.6,3.831,3.831,0,0,1-2.468.823h-.822V84.08C52.784,83.943,53.058,83.806,53.469,83.806Zm12.886,1.507V99.022a.3.3,0,0,1-.274.274H64.847v1.1h6.032a17.526,17.526,0,0,0,5.621-.686c2.33-.822,3.427-2.33,3.427-4.387q0-3.906-4.936-4.936a13.216,13.216,0,0,0,2.742-1.233A3.047,3.047,0,0,0,79.1,86.409a3.289,3.289,0,0,0-.823-2.056c-.959-1.234-2.742-1.919-5.072-1.919H64.161v1.1h1.371a.717.717,0,0,1,.549.274,2.8,2.8,0,0,1,.274,1.508Zm15.081-1.782H80.064v-1.1h14.4l-.274,2.879c-.137.274-.274.412-.548.412s-.412-.137-.412-.548l-.274-.549-.548-.411-2.331-.411H86.919l-.137.411v5.895H88.29a10.8,10.8,0,0,0,2.879-.273.829.829,0,0,0,.411-.823v-.959h.96v4.935h-.96V92.58a1.306,1.306,0,0,0-.274-.959,5.414,5.414,0,0,0-2.056-.274H86.782v3.427a24.562,24.562,0,0,0,.137,3.7c.138.411.274.685.548.685l4.25-.273a3.724,3.724,0,0,0,2.742-1.508l.549-.412a.364.364,0,0,1,.411.412A14.34,14.34,0,0,1,94.6,100.4H80.75V99.3h1.234a.3.3,0,0,0,.274-.274V85.313a2.805,2.805,0,0,0-.274-1.508.717.717,0,0,0-.548-.274Zm-7.814,6.444-2.742-.137V84.08c0-.137.274-.274.686-.274a3.615,3.615,0,0,1,2.6.96,3.736,3.736,0,0,1,.96,2.741,4.956,4.956,0,0,1-.274,1.508,1.75,1.75,0,0,1-1.234.96Zm-1.509,9.184-.685-.137c-.137,0-.274-.137-.274-.411a17.47,17.47,0,0,1-.274-3.838V90.934a4.778,4.778,0,0,1,3.838,1.646,4.187,4.187,0,0,1,.96,2.742,3.744,3.744,0,0,1-1.1,2.6,3.116,3.116,0,0,1-2.468,1.233Z" transform="translate(-8.254 -75.743)" fill="#fff" stroke="#ca9d22" stroke-width="0.5" fill-rule="evenodd"/>
</svg>
