<svg id="Maquina" xmlns="http://www.w3.org/2000/svg" width="85.024" height="89.007" viewBox="0 0 85.024 89.007">
  <g id="Layer_1" data-name="Layer 1">
    <path id="Caminho_203" data-name="Caminho 203" d="M14.045,75.843a21.118,21.118,0,0,1,6.834-10.23l.084.084a9.377,9.377,0,0,0,6.708.964c8.637-1.384,19.537-9.727,19.537-9.727L63.056,41.087a2.194,2.194,0,0,1,2.264-.8L66.7,38.907a5.513,5.513,0,0,0,7.924-.377l10.4-11.865L58.36,0,46.5,10.4a5.45,5.45,0,0,0-.252,8.008L44.86,19.789a2.194,2.194,0,0,1-.8,2.264L28.216,37.9s-8.343,10.9-9.727,19.537a11.487,11.487,0,0,0,.042,4.486A25.574,25.574,0,0,0,9.936,74.585C8.469,79.364,6.96,82.3,5.325,83.557,3.983,84.6,2.432,84.647,0,84.647v4.36c2.516,0,5.408,0,7.966-1.97C10.4,85.108,12.284,81.67,14.045,75.843ZM58.318,3.228,82.09,27l-2.18,1.425L56.851,5.366Zm-3.4,3.4L78.694,30.4l-2.306,1.509L53.329,8.846Z" transform="translate(0)" fill="#faa846"/>
  </g>
</svg>
