<svg id="Navalha" xmlns="http://www.w3.org/2000/svg" width="86.812" height="105.833" viewBox="0 0 86.812 105.833">
  <g id="Layer_1" data-name="Layer 1">
    <path id="Caminho_204" data-name="Caminho 204" d="M85.7,102.145C73.2,96.233,74.042,88.519,74.839,85.794a4.612,4.612,0,0,0,2.683-2.767c1.048-2.6.587-5.911-2.054-7.085-.293-.126-.587-.293-.922-.419L47.713,5.8A9.094,9.094,0,0,0,37.324.224h0A9.1,9.1,0,0,0,30.91,12.718l8.93,20.376S46,47.977,55.478,49.822L64.45,70.617A167.215,167.215,0,0,1,15.188,30.494c-4.318-5.2-8.595-4.989-12.2-1.97h0c-3.522,2.977-4.57,7.63.545,13A179.389,179.389,0,0,0,67.091,84.159a98.943,98.943,0,0,1,4.36,10.356c2.516,6.876,9.517,10.062,12.829,11.236a1.95,1.95,0,0,0,2.432-1.132,1.991,1.991,0,0,0-1.015-2.474ZM70.814,77.493a2.285,2.285,0,0,1,.5,3.186c-.084.084-.126.168-.21.252A2.281,2.281,0,0,1,67.628,78l.042-.042A2.3,2.3,0,0,1,70.814,77.493Z" transform="translate(-0.018 -0.018)" fill="#faa846"/>
  </g>
</svg>
