<svg id="Tesoura" xmlns="http://www.w3.org/2000/svg" width="80.264" height="101.064" viewBox="0 0 80.264 101.064">
  <g id="Layer_1" data-name="Layer 1">
    <path id="Caminho_206" data-name="Caminho 206" d="M77.434,94.5a3.14,3.14,0,1,0,2.225.92A3.144,3.144,0,0,0,77.434,94.5Zm-.671,5.366-.918-.545,2.222-3.857.922.545Z" transform="translate(-43.142 -54.881)" fill="#faa846"/>
    <path id="Caminho_207" data-name="Caminho 207" d="M79.19,95a1.438,1.438,0,0,0-1.551.629c-2.683,4.528-8.762-.419-9.936-2.474a3.652,3.652,0,0,1-.293-2.557c3.731-4.738,4.025-12.074.252-18.154A16.831,16.831,0,0,0,55.8,64.355c-1.551-.461-5.031-1.761-6.456-4.486-.5-.922-3.48-6.75-7.379-14.38,3.061-9.643,10.733-33.708,11.781-36.056C54.957,6.666,51.566,0,51.566,0S43.181,16.477,35.173,32.157C27.161,16.477,18.776,0,18.776,0s-3.4,6.666-2.18,9.433c1.048,2.348,8.72,26.413,11.781,36.056-3.9,7.63-6.876,13.458-7.379,14.38-1.467,2.725-4.905,4.025-6.456,4.486A16.914,16.914,0,0,0,2.677,72.447C-1.977,80.035-.426,89.468,6.2,93.535s15.764,1.216,20.418-6.373A16.716,16.716,0,0,0,27.874,71.44l.084-.042a9.84,9.84,0,0,1-.629-7.966l5.408-10.565,2.432-1.048L37.6,52.868l5.408,10.565A9.643,9.643,0,0,1,42.38,71.4l.084.042a16.473,16.473,0,0,0,1.258,15.722c3.941,6.415,11.068,9.433,17.189,7.756a21.728,21.728,0,0,1,2.474.8,10.02,10.02,0,0,1,2.348,1.342c10.1,7.63,13.458,2.516,14.464-.252A1.425,1.425,0,0,0,79.19,95Zm-56.6-10.272c-3.1,5.031-9.182,6.96-13.626,4.234S3.515,79.951,6.618,74.92s9.182-6.96,13.626-4.234S25.694,79.7,22.591,84.731ZM34.288,47a4.222,4.222,0,0,1-4.234-4.234,4.612,4.612,0,0,1,.084-.755,4.348,4.348,0,0,1,1.09-2.138A4.226,4.226,0,1,1,34.288,47ZM47.662,84.731c-3.1-5.031-2.054-11.362,2.348-14.045s10.481-.8,13.626,4.234,2.054,11.362-2.348,14.045S50.765,89.8,47.662,84.731Z" transform="translate(0.004)" fill="#faa846"/>
  </g>
</svg>
